<svg width="82" height="47" viewBox="0 0 82 47" fill="none" xmlns="http://www.w3.org/2000/svg">
<path d="M35.84 14.685C36.0233 15.785 36.1517 16.9767 36.225 18.26C36.335 19.5433 36.335 21.1017 36.225 22.935C36.115 24.7317 35.8583 26.95 35.455 29.59C34.905 33.1467 33.4567 36.135 31.11 38.555C28.7633 40.9383 25.8117 42.4967 22.255 43.23C21.265 43.45 20.11 43.615 18.79 43.725C17.47 43.7983 16.15 43.8717 14.83 43.945C13.5467 43.9817 12.3917 44.0367 11.365 44.11C10.4483 44.2933 9.34833 44.4217 8.065 44.495C6.78167 44.5683 5.57167 44.55 4.435 44.44C3.29833 44.33 2.47333 44.1283 1.96 43.835C2.25333 43.3217 2.49167 42.5517 2.675 41.525C2.85833 40.4617 3.005 39.3067 3.115 38.06C3.225 36.8133 3.26167 35.6217 3.225 34.485L3.06 15.84C3.06 14.3367 3.04167 12.9617 3.005 11.715C3.005 10.4683 2.96833 9.49666 2.895 8.8C2.82167 8.03 2.52833 7.35167 2.015 6.765C1.53833 6.17833 1.19 5.59167 0.97 5.005C0.383333 3.39166 0.126667 1.815 0.2 0.274999C0.383333 0.311665 0.786667 0.366665 1.41 0.439997C2.07 0.476665 2.82167 0.531666 3.665 0.604998C4.58167 0.641664 6.01167 0.696665 7.955 0.769999C9.935 0.843332 11.9517 0.916664 14.005 0.989996C14.005 0.989996 14.2983 1.00833 14.885 1.045C15.5083 1.045 16.2783 1.08167 17.195 1.155C18.1117 1.22833 19.065 1.33833 20.055 1.485C21.045 1.595 21.9067 1.74166 22.64 1.925C25.0233 2.54833 27.0217 3.41 28.635 4.51C30.285 5.57333 31.605 6.72833 32.595 7.975C33.6217 9.22166 34.3917 10.45 34.905 11.66C35.4183 12.8333 35.73 13.8417 35.84 14.685ZM16.645 33.55C18.1483 33.1833 19.56 32.4683 20.88 31.405C22.2367 30.305 23.3 28.8383 24.07 27.005C24.8767 25.135 25.17 22.8617 24.95 20.185C24.6933 16.7017 23.7767 14.2817 22.2 12.925C20.66 11.5683 18.6433 10.8717 16.15 10.835C15.4533 10.7983 14.9033 11.2567 14.5 12.21C14.0967 13.1633 13.8217 14.7033 13.675 16.83C13.6017 18.2233 13.5467 19.2683 13.51 19.965C13.4733 20.625 13.455 21.175 13.455 21.615C13.4917 22.055 13.4917 22.6233 13.455 23.32C13.455 23.32 13.455 23.65 13.455 24.31C13.4917 24.97 13.5467 25.795 13.62 26.785C13.6933 27.7383 13.785 28.7283 13.895 29.755C14.005 30.745 14.1333 31.5883 14.28 32.285C14.4633 33.055 14.8117 33.495 15.325 33.605C15.8383 33.6783 16.2783 33.66 16.645 33.55Z" fill="#34D399"/>
<path d="M58.84 20.79C62.58 9.53333 65.0733 3.905 66.32 3.905C66.4667 3.905 66.6317 3.92333 66.815 3.96C67.4017 3.99666 68.0617 3.75833 68.795 3.245C69.7483 2.43833 70.8483 1.815 72.095 1.375C73.3783 0.934997 74.625 0.769997 75.835 0.879998C78.6583 1.13667 80.4367 2.62167 81.17 5.335V5.5C80.9867 6.01333 80.8033 6.435 80.62 6.765H80.84C79.9233 7.90166 79.0433 9.38667 78.2 11.22C77.3567 13.0167 76.715 14.4283 76.275 15.455C75.835 16.445 75.2117 17.71 74.405 19.25C73.5983 20.79 72.6633 22.6783 71.6 24.915C70.5733 27.1517 69.4917 29.37 68.355 31.57C65.6417 36.85 62.9467 40.9933 60.27 44C58.9133 45.65 57.08 46.4567 54.77 46.42C53.78 46.3833 52.8267 46.1267 51.91 45.65C50.9933 45.1733 50.2783 44.44 49.765 43.45L48.61 39.985C48.1333 40.3883 47.5833 40.9017 46.96 41.525C46.3367 42.1483 45.6767 42.79 44.98 43.45C43.3667 44.99 42.12 45.7967 41.24 45.87C40.36 45.9433 39.6083 45.9433 38.985 45.87C38.3617 45.8333 37.775 45.705 37.225 45.485C35.9783 45.0083 35.1717 44.0917 34.805 42.735C34.1817 36.465 34.4933 28.4533 35.74 18.7C36.07 16.3167 36.3633 13.97 36.62 11.66C37.2433 8.39666 38.4167 6.05 40.14 4.62C41.6067 3.37333 43.0367 3.00666 44.43 3.52C45.0533 3.74 45.53 4.10667 45.86 4.62C46.19 5.13333 46.3 5.75667 46.19 6.49C46.2633 8.72666 46.245 10.395 46.135 11.495C45.9883 13.365 45.9333 14.74 45.97 15.62C46.0067 16.5 45.9883 17.2333 45.915 17.82C45.8783 18.37 45.8417 18.9017 45.805 19.415C45.805 19.8917 45.8233 20.295 45.86 20.625C45.9333 20.9183 46.08 20.9733 46.3 20.79C47.1433 18.9933 47.8583 17.6917 48.445 16.885C49.0317 16.0783 49.655 15.235 50.315 14.355C51.3417 13.4383 52.24 13.09 53.01 13.31C53.4133 13.3833 53.835 13.53 54.275 13.75C54.715 13.9333 55.3017 14.0983 56.035 14.245C56.5117 14.6483 56.8233 15.0883 56.97 15.565C57.08 15.675 57.19 15.785 57.3 15.895C57.41 15.9683 57.4833 16.0783 57.52 16.225C57.5933 16.335 57.685 16.61 57.795 17.05C57.9417 17.49 58.0883 17.9667 58.235 18.48C58.3817 18.9567 58.51 19.4333 58.62 19.91C58.73 20.35 58.8033 20.6433 58.84 20.79ZM60.16 43.835C60.16 43.9083 60.16 43.9267 60.16 43.89C60.1967 43.8167 60.215 43.7433 60.215 43.67L60.16 43.835Z" fill="#34D399"/>
</svg>
